<svg xmlns="http://www.w3.org/2000/svg" width="135" height="40" viewBox="0 0 135 40" fill="none">
  <path d="M135 35.9946C135 37.0589 134.59 38.0795 133.861 38.8316C133.132 39.5838 132.143 40.0058 131.113 40.0047H3.89257C1.7454 40.007 0.00279828 38.2118 0 35.9946V4.01534C0.0027968 1.79729 1.74458 0.000575737 3.89257 0H131.111C132.143 -3.622e-08 133.132 0.423077 133.861 1.17613C134.59 1.92918 134.999 2.9505 134.999 4.01534L135 35.9946Z" fill="black"/>
  <path fill-rule="evenodd" clip-rule="evenodd" d="M27.3954 5.3877C27.5634 6.9139 26.9584 8.41785 26.0742 9.5233C25.1515 10.6116 23.6755 11.4439 22.2379 11.3367C22.0498 9.86819 22.7782 8.30659 23.5936 7.35385C24.5152 6.27267 26.1157 5.44433 27.3954 5.3877ZM32.1018 14.1918C31.9413 14.2875 29.2827 15.874 29.3118 19.1093C29.3462 23.0154 32.7312 24.3079 32.7717 24.3221C32.7515 24.4131 32.2416 26.1871 30.9719 27.9864C29.9117 29.5712 28.8009 31.1217 27.0365 31.149C26.1978 31.1683 25.6314 30.9274 25.0412 30.6764C24.4256 30.4145 23.784 30.1417 22.7805 30.1417C21.7169 30.1417 21.047 30.4234 20.401 30.695C19.8421 30.93 19.3011 31.1575 18.5385 31.1885C16.8582 31.2502 15.5744 29.4974 14.4757 27.9257C12.2794 24.7186 10.5697 18.8878 12.8621 14.9201C13.9729 12.9742 15.9983 11.7211 18.1632 11.6877C19.1166 11.6682 20.0309 12.0355 20.8325 12.3575C21.4455 12.6038 21.9925 12.8235 22.4405 12.8235C22.8341 12.8235 23.3657 12.6125 23.9854 12.3667C24.9619 11.9792 26.157 11.505 27.3744 11.6331C28.207 11.6574 30.5764 11.9618 32.105 14.1899L32.1018 14.1918Z" fill="white"/>
  <path fill-rule="evenodd" clip-rule="evenodd" d="M86.7023 29.9839C87.4985 29.2648 87.8991 28.3333 87.8991 27.1873C87.8991 26.2579 87.626 25.4781 87.0766 24.853C86.5313 24.228 85.6795 23.6839 84.5202 23.2166C83.5753 22.8444 82.9217 22.4975 82.5636 22.1789C82.1508 21.833 81.9434 21.392 81.9434 20.861C81.9434 20.3796 82.1255 19.974 82.4847 19.6413C82.9116 19.2691 83.5085 19.082 84.2693 19.082C85.2324 19.082 86.0933 19.2883 86.8561 19.701L87.3973 17.9432C86.587 17.5174 85.5662 17.304 84.3411 17.304C82.9693 17.304 81.8666 17.6569 81.035 18.3629C80.2034 19.0699 79.7866 19.974 79.7866 21.0785C79.7866 22.7696 80.9662 24.055 83.3234 24.9339C84.1904 25.2525 84.8075 25.5994 85.1808 25.9716C85.5521 26.3448 85.7412 26.803 85.7412 27.3502C85.7412 27.9611 85.5126 28.4506 85.0604 28.8167C84.6092 29.1818 83.9769 29.3659 83.1635 29.3659C82.0325 29.3659 80.9935 29.0867 80.0476 28.5264L79.5488 30.3237C80.4249 30.883 81.5863 31.1621 83.035 31.1621C84.6031 31.1621 85.8262 30.7687 86.7023 29.9839ZM53.1229 30.9629H50.8254L49.5669 27.0093H45.1925L43.9936 30.9629H41.7568L46.0918 17.5032H48.7687L53.1229 30.9629ZM49.188 25.3507L48.0498 21.8361C47.9294 21.4771 47.7028 20.6315 47.371 19.3005H47.3305C47.197 19.873 46.9835 20.7185 46.6912 21.8361L45.5723 25.3507H49.188ZM62.9036 29.9041C63.801 28.9463 64.2491 27.6416 64.2491 25.991C64.2491 24.5133 63.8657 23.3219 63.1019 22.4147C62.3371 21.5095 61.3811 21.0574 60.2358 21.0574C58.771 21.0574 57.6794 21.6369 56.9601 22.796H56.9196L56.7992 21.2576H54.9023C54.955 22.3479 54.9823 23.4109 54.9823 24.4476V34.8984H57.1391V29.806C57.7006 30.7243 58.6253 31.1825 59.9111 31.1825C61.1018 31.1825 62.1004 30.7567 62.9036 29.9041ZM62.0523 26.0698C62.0523 25.1251 61.8399 24.3464 61.413 23.7325C60.9466 23.0943 60.3204 22.7747 59.5353 22.7747C59.0032 22.7747 58.5196 22.9527 58.0876 23.3036C57.6546 23.6576 57.3714 24.1198 57.2388 24.6923C57.1797 24.9064 57.146 25.1267 57.1387 25.3487V26.9679C57.1387 27.6729 57.3552 28.2686 57.7882 28.7561C58.2212 29.2415 58.7836 29.4853 59.4756 29.4853C60.288 29.4853 60.9203 29.1707 61.3725 28.5467C61.8257 27.9207 62.0523 27.0954 62.0523 26.0698ZM74.0697 29.9041C74.967 28.9463 75.4152 27.6416 75.4152 25.991C75.4152 24.5133 75.0307 23.3219 74.268 22.4147C73.5011 21.5095 72.5451 21.0574 71.4009 21.0574C69.935 21.0574 68.8434 21.6369 68.1251 22.796H68.0846L67.9643 21.2576H66.0674C66.12 22.3479 66.1473 23.4109 66.1473 24.4476V34.8984H68.3042V29.806C68.8657 30.7243 69.7903 31.1825 71.0761 31.1825C72.2679 31.1825 73.2654 30.7567 74.0697 29.9041ZM73.2164 26.0698C73.2164 25.1251 73.003 24.3464 72.576 23.7325C72.1097 23.0943 71.4855 22.7747 70.7004 22.7747C70.1683 22.7747 69.6847 22.9527 69.2507 23.3036C68.8177 23.6576 68.5355 24.1198 68.4029 24.6923C68.3372 24.9593 68.3018 25.1767 68.3018 25.3487V26.9679C68.3018 27.6729 68.5193 28.2686 68.9502 28.7561C69.3832 29.2405 69.9457 29.4853 70.6397 29.4853C71.4531 29.4853 72.0854 29.1707 72.5366 28.5467C72.9898 27.9207 73.2164 27.0954 73.2164 26.0698ZM95.0479 22.8757H92.6705V27.5878C92.6705 28.7863 93.0893 29.384 93.929 29.384C94.3145 29.384 94.6342 29.3517 94.8871 29.2839L94.9468 30.9213C94.5219 31.0801 93.9624 31.16 93.2694 31.16C92.4176 31.16 91.7519 30.9001 91.2714 30.3802C90.7929 29.8604 90.5521 28.9896 90.5521 27.7638V22.8716H89.1357V21.2534H90.5521V19.4764L92.6705 18.8372V21.2534H95.0479V22.8757ZM104.475 29.7047C105.327 28.7469 105.754 27.5221 105.754 26.0303C105.754 24.5779 105.342 23.3946 104.515 22.4783C103.649 21.5336 102.504 21.0603 101.08 21.0603C99.6019 21.0603 98.4263 21.5397 97.5533 22.4985C96.6822 23.4563 96.2452 24.6882 96.2452 26.1921C96.2452 27.6293 96.6681 28.8208 97.5138 29.7664C98.3596 30.71 99.4937 31.1824 100.92 31.1824C102.398 31.1824 103.584 30.6908 104.475 29.7047ZM103.518 26.0799C103.518 25.1908 103.326 24.4283 102.94 23.7901C102.488 23.0194 101.84 22.634 101.002 22.634C100.138 22.634 99.4752 23.0194 99.024 23.7901C98.6375 24.4283 98.4453 25.204 98.4453 26.1203C98.4453 27.0104 98.6375 27.775 99.024 28.4111C99.4904 29.1818 100.141 29.5672 100.984 29.5672C101.808 29.5672 102.455 29.1737 102.922 28.3919C103.319 27.7386 103.518 26.9709 103.518 26.0799ZM112.088 23.0943C112.316 23.0935 112.544 23.1135 112.768 23.154L112.766 21.0968C112.606 21.0715 112.426 21.0574 112.227 21.0574C111.665 21.0582 111.118 21.2405 110.668 21.5772C110.176 21.9626 109.818 22.4774 109.59 23.1156H109.53L109.451 21.2586H107.572C107.616 22.2765 107.637 23.2953 107.635 24.3141V30.963H109.792V25.8706C109.792 25.0989 109.972 24.4597 110.33 23.954C110.743 23.3795 111.33 23.0943 112.088 23.0943ZM122.414 25.6509C122.419 25.9787 122.393 26.3063 122.335 26.629H115.864C115.888 27.5878 116.202 28.322 116.803 28.8277C117.348 29.2788 118.053 29.5054 118.919 29.5054C119.877 29.5054 120.751 29.3537 121.538 29.0472L121.875 30.5431C120.957 30.9436 119.872 31.1428 118.621 31.1428C117.116 31.1428 115.934 30.6998 115.074 29.8159C114.216 28.9309 113.786 27.7415 113.786 26.2517C113.786 24.7892 114.186 23.5705 114.986 22.5985C115.824 21.5608 116.956 21.042 118.38 21.042C119.779 21.042 120.838 21.5608 121.558 22.5985C122.127 23.4208 122.414 24.4403 122.414 25.6509ZM119.938 23.4341C120.231 23.9003 120.372 24.4515 120.357 25.0918L115.865 25.0897C115.931 24.4394 116.144 23.8791 116.504 23.4128C116.941 22.8262 117.515 22.5339 118.22 22.5339C118.99 22.5339 119.565 22.8333 119.938 23.4341Z" fill="white"/>
  <path fill-rule="evenodd" clip-rule="evenodd" d="M70.7517 12.686H69.6904V5.72754H70.7517V12.686ZM43.0195 12.6657C43.4515 12.7153 43.9705 12.7446 44.5704 12.7446C47.1127 12.7446 48.4583 11.5087 48.4583 9.22091C48.4583 7.23756 47.3191 6.02084 44.8456 6.02084C44.2342 6.0191 43.6237 6.06509 43.0195 6.15839V12.6657ZM44.0791 6.924C44.3148 6.87545 44.5991 6.85522 44.9329 6.85522C46.5041 6.85522 47.3387 7.70986 47.3387 9.25022C47.3387 10.9777 46.4161 11.9001 44.7954 11.9001C44.4514 11.9001 44.2066 11.891 44.0791 11.8707V6.924ZM52.0084 12.7942C50.6144 12.7942 49.7109 11.7535 49.7109 10.3405C49.7109 8.86795 50.6336 7.81812 52.0873 7.81812C53.4612 7.81812 54.3848 8.80929 54.3848 10.2627C54.3848 11.7535 53.4329 12.7942 52.0084 12.7942ZM50.792 10.3101C50.792 9.30884 51.2826 8.59277 52.0485 8.59277C52.7941 8.59277 53.2847 9.31896 53.2847 10.2899C53.2847 11.2426 52.784 12.0083 52.0384 12.0083C51.2928 12.0083 50.792 11.2922 50.792 10.3101ZM62.3346 7.91626L60.8424 12.686H59.8702L59.252 10.6147C59.0984 10.108 58.9704 9.5939 58.8686 9.07431H58.8484C58.7705 9.59417 58.6228 10.115 58.466 10.6147L57.8084 12.686H56.8261L55.4219 7.91626H56.5114L57.0517 10.1838C57.1791 10.7239 57.2864 11.2336 57.3754 11.7151H57.3956C57.4735 11.3135 57.601 10.8119 57.7882 10.1939L58.466 7.91727H59.3299L59.9784 10.1454C60.1352 10.6855 60.2627 11.2154 60.3618 11.7161H60.3902C60.459 11.2256 60.5672 10.7047 60.7139 10.1454L61.2936 7.91727L62.3346 7.91626ZM66.7675 12.686H67.8277L67.8287 9.82979C67.8287 8.58374 67.1712 7.81812 66.1696 7.81812C65.5211 7.81812 64.9425 8.14176 64.6572 8.65151H64.6278L64.5783 7.91521H63.6455C63.6748 8.40574 63.685 8.85783 63.685 9.27959V12.686H64.7452V9.849C64.7452 9.22093 65.1772 8.68084 65.8054 8.68084C66.4438 8.68084 66.7675 9.1036 66.7675 9.94711V12.686ZM72.3194 10.3405C72.3194 11.7535 73.2238 12.7942 74.6169 12.7942C76.0403 12.7942 76.9933 11.7535 76.9923 10.2627C76.9923 8.80927 76.0697 7.8181 74.6948 7.8181C73.2421 7.8181 72.3194 8.86793 72.3194 10.3405ZM74.6559 8.59277C73.8901 8.59277 73.3994 9.30884 73.3994 10.3101C73.3994 11.2922 73.9012 12.0083 74.6448 12.0083C75.3914 12.0083 75.8911 11.2426 75.8911 10.2899C75.8922 9.31896 75.4025 8.59277 74.6559 8.59277ZM81.0952 12.1368L81.1721 12.686L82.1281 12.687C82.0806 12.4028 82.0594 12.0296 82.0594 11.5482V9.79135C82.0594 8.47552 81.4301 7.81812 80.1837 7.81812C79.5373 7.81812 78.9869 7.95567 78.5458 8.23077L78.7613 8.92762C79.1245 8.69196 79.5373 8.57363 80.0077 8.57363C80.6653 8.57363 80.9981 8.88818 80.9981 9.51625V9.60425C79.2307 9.60425 78.21 10.2131 78.21 11.3904C78.21 12.1954 78.817 12.7942 79.6718 12.7942C80.2707 12.7942 80.7432 12.5788 81.0669 12.1368H81.0952ZM81.0272 10.3103C79.8496 10.3103 79.2588 10.5955 79.2588 11.2721C79.2588 11.7728 79.5633 12.0175 79.9862 12.0175C80.5254 12.0175 81.0272 11.6059 81.0272 11.0466V10.3103ZM87.1588 11.9203L87.2084 12.686H88.1522C88.1239 12.2935 88.1128 11.8617 88.1128 11.4005V5.72754H87.0516V8.46539H87.0303C86.7754 8.03252 86.3232 7.81709 85.6848 7.81709C84.4789 7.81709 83.5957 8.86793 83.5957 10.3597C83.5957 11.7828 84.4475 12.7942 85.5978 12.7942C86.313 12.7942 86.8249 12.4989 87.1295 11.9203H87.1588ZM87.0515 9.87927C87.0515 9.21175 86.6094 8.64233 85.9346 8.64233C85.1485 8.64233 84.668 9.33919 84.668 10.3202C84.668 11.2821 85.1667 11.9405 85.9133 11.9405C86.58 11.9405 87.0515 11.361 87.0515 10.6742V9.87927ZM92.5449 10.3405C92.5449 11.7535 93.4483 12.7942 94.8414 12.7942C96.2668 12.7942 97.2188 11.7535 97.2178 10.2627C97.2178 8.80929 96.2952 7.81812 94.9203 7.81812C93.4676 7.81812 92.5449 8.86795 92.5449 10.3405ZM94.8805 8.59277C94.1157 8.59277 93.625 9.30884 93.625 10.3101C93.625 11.2922 94.1258 12.0083 94.8704 12.0083C95.617 12.0083 96.1167 11.2426 96.1167 10.2899C96.1188 9.31896 95.6281 8.59277 94.8805 8.59277ZM101.858 12.686H102.92V9.82881C102.92 8.58277 102.261 7.81714 101.259 7.81714C100.612 7.81714 100.032 8.1418 99.748 8.65154H99.7187L99.6691 7.91524H98.7363C98.7657 8.40577 98.7758 8.85787 98.7758 9.27962V12.686H99.837V9.84904C99.837 9.22096 100.268 8.68087 100.896 8.68087C101.535 8.68087 101.858 9.10364 101.858 9.94714V12.686ZM110.053 8.71114H108.886V11.0272C108.886 11.6169 109.091 11.9112 109.504 11.9112C109.691 11.9112 109.848 11.891 109.974 11.8616L110.003 12.6667C109.798 12.7456 109.523 12.785 109.181 12.785C108.345 12.785 107.845 12.3239 107.845 11.1162V8.71114H107.149V7.91618H107.845V7.04233L108.886 6.72778V7.91516H110.053V8.71114ZM114.606 12.686H115.665V9.84899C115.665 8.60193 115.048 7.81709 114.039 7.81709C113.421 7.81709 112.938 8.07297 112.604 8.59283H112.583V5.72754H111.524V12.686H112.583V9.81055C112.583 9.05504 113.095 8.68183 113.644 8.68183C114.283 8.68183 114.606 9.1137 114.606 9.96732V12.686ZM121.415 10.5561H118.234C118.254 11.4593 118.852 11.969 119.737 11.969C120.207 11.969 120.64 11.8901 121.023 11.7435L121.188 12.4798C120.737 12.676 120.205 12.7741 119.587 12.7741C118.095 12.7741 117.212 11.8314 117.212 10.37C117.212 8.9075 118.116 7.80811 119.468 7.80811C120.687 7.80811 121.452 8.71128 121.452 10.0757C121.459 10.2367 121.446 10.3979 121.415 10.5561ZM119.395 8.54419C120.073 8.54419 120.444 9.06405 120.444 9.80035H118.235C118.304 9.07416 118.786 8.54419 119.395 8.54419Z" fill="white"/>
</svg>