<svg xmlns="http://www.w3.org/2000/svg" width="135" height="40" viewBox="0 0 135 40" fill="none">
  <path d="M130 40H5C2.2 40 0 37.8 0 35V5C0 2.2 2.2 0 5 0H130C132.8 0 135 2.2 135 5V35C135 37.8 132.8 40 130 40Z" fill="black"/>
  <path fill-rule="evenodd" clip-rule="evenodd" d="M46.7004 12.1999C47.2004 11.6999 47.4004 10.9999 47.4004 10.1999V9.7999H44.5004V10.5999H46.7004C46.7004 11.0999 46.5004 11.4999 46.2004 11.7999C45.7004 12.2999 45.2004 12.4999 44.5004 12.4999C43.9004 12.4999 43.4004 12.1999 42.9004 11.7999C42.4004 11.3999 42.2004 10.7999 42.2004 10.0999C42.2004 9.3999 42.4004 8.7999 42.9004 8.3999C43.3004 7.8999 43.9004 7.6999 44.5004 7.6999C45.2004 7.6999 45.7004 7.8999 46.1004 8.3999L46.6004 7.8999C46.4004 7.5999 46.1004 7.3999 45.7004 7.1999C45.3004 6.9999 44.9004 6.8999 44.5004 6.8999C43.6004 6.8999 42.9004 7.1999 42.3004 7.7999C41.7004 8.3999 41.4004 9.0999 41.4004 9.9999C41.4004 10.8999 41.7004 11.5999 42.3004 12.1999C42.9004 12.7999 43.6004 13.0999 44.5004 13.0999C45.4004 13.0999 46.1004 12.7999 46.7004 12.1999ZM49.3 7.7H52V7H48.5V13H52V12.2H49.3V10.3H51.8V9.6H49.3V7.7ZM55.3008 13H54.5008V7.7H52.8008V7H57.0008V7.7H55.3008V13ZM60.7004 6.9999H59.9004V12.9999H60.7004V6.9999ZM64.0006 13H63.3006V7.7H61.6006V7H65.7006V7.7H64.0006V13ZM71.4008 13.0999C72.3008 13.0999 73.0008 12.7999 73.6008 12.1999C74.2008 11.5999 74.5008 10.8999 74.5008 9.9999C74.5008 9.0999 74.2008 8.3999 73.6008 7.7999C73.0008 7.1999 72.3008 6.8999 71.4008 6.8999C70.5008 6.8999 69.8008 7.1999 69.2008 7.7999C68.6008 8.3999 68.3008 9.0999 68.3008 9.9999C68.3008 10.8999 68.6008 11.5999 69.2008 12.1999C69.8008 12.7999 70.5008 13.0999 71.4008 13.0999ZM69.8006 11.6999C70.2006 12.0999 70.8006 12.3999 71.4006 12.3999C72.0006 12.3999 72.6006 12.1999 73.0006 11.6999C73.4006 11.2999 73.7006 10.6999 73.7006 9.99985C73.7006 9.29985 73.5006 8.69985 73.0006 8.29985C72.6006 7.89985 72.0006 7.59985 71.4006 7.59985C70.8006 7.59985 70.2006 7.79985 69.8006 8.29985C69.4006 8.69985 69.1006 9.29985 69.1006 9.99985C69.1006 10.6999 69.3006 11.2999 69.8006 11.6999ZM75.6006 7V13H76.3006V8.1L79.4006 13H80.2006V7H79.4006V11.7L76.5006 7H75.6006Z" fill="white"/>
  <path d="M47.4004 9.7999H47.5004V9.6999H47.4004V9.7999ZM44.5004 9.7999V9.6999H44.4004V9.7999H44.5004ZM44.5004 10.5999H44.4004V10.6999H44.5004V10.5999ZM46.7004 10.5999H46.8004V10.4999H46.7004V10.5999ZM42.9004 8.3999L42.9629 8.47799L42.9715 8.47105L42.9785 8.46237L42.9004 8.3999ZM46.1004 8.3999L46.0223 8.46237L46.0921 8.54962L46.1711 8.47061L46.1004 8.3999ZM46.6004 7.8999L46.6711 7.97061L46.7291 7.91264L46.6836 7.84443L46.6004 7.8999ZM45.7004 7.1999L45.6557 7.28935L45.7004 7.1999ZM52 7.7V7.8H52.1V7.7H52ZM49.3 7.7V7.6H49.2V7.7H49.3ZM52 7H52.1V6.9H52V7ZM48.5 7V6.9H48.4V7H48.5ZM48.5 13H48.4V13.1H48.5V13ZM52 13V13.1H52.1V13H52ZM52 12.2H52.1V12.1H52V12.2ZM49.3 12.2H49.2V12.3H49.3V12.2ZM49.3 10.3V10.2H49.2V10.3H49.3ZM51.8 10.3V10.4H51.9V10.3H51.8ZM51.8 9.6H51.9V9.5H51.8V9.6ZM49.3 9.6H49.2V9.7H49.3V9.6ZM54.5008 13H54.4008V13.1H54.5008V13ZM55.3008 13V13.1H55.4008V13H55.3008ZM54.5008 7.7H54.6008V7.6H54.5008V7.7ZM52.8008 7.7H52.7008V7.8H52.8008V7.7ZM52.8008 7V6.9H52.7008V7H52.8008ZM57.0008 7H57.1008V6.9H57.0008V7ZM57.0008 7.7V7.8H57.1008V7.7H57.0008ZM55.3008 7.7V7.6H55.2008V7.7H55.3008ZM59.9004 6.9999V6.8999H59.8004V6.9999H59.9004ZM60.7004 6.9999H60.8004V6.8999H60.7004V6.9999ZM59.9004 12.9999H59.8004V13.0999H59.9004V12.9999ZM60.7004 12.9999V13.0999H60.8004V12.9999H60.7004ZM63.3006 13H63.2006V13.1H63.3006V13ZM64.0006 13V13.1H64.1006V13H64.0006ZM63.3006 7.7H63.4006V7.6H63.3006V7.7ZM61.6006 7.7H61.5006V7.8H61.6006V7.7ZM61.6006 7V6.9H61.5006V7H61.6006ZM65.7006 7H65.8006V6.9H65.7006V7ZM65.7006 7.7V7.8H65.8006V7.7H65.7006ZM64.0006 7.7V7.6H63.9006V7.7H64.0006ZM73.6008 12.1999L73.5301 12.1292L73.6008 12.1999ZM73.6008 7.7999L73.5301 7.87061V7.87061L73.6008 7.7999ZM69.8006 11.6999L69.8717 11.6287L69.8631 11.6218L69.8006 11.6999ZM73.0006 11.6999L72.9294 11.6287L72.9225 11.6374L73.0006 11.6999ZM73.0006 8.29985L72.9294 8.371L72.9381 8.37794L73.0006 8.29985ZM69.8006 8.29985L69.8717 8.371L69.8787 8.36232L69.8006 8.29985ZM75.6006 13H75.5006V13.1H75.6006V13ZM75.6006 7V6.9H75.5006V7H75.6006ZM76.3006 13V13.1H76.4006V13H76.3006ZM76.3006 8.1L76.3851 8.04654L76.2006 7.75489V8.1H76.3006ZM79.4006 13L79.3161 13.0535L79.3455 13.1H79.4006V13ZM80.2006 13V13.1H80.3006V13H80.2006ZM80.2006 7H80.3006V6.9H80.2006V7ZM79.4006 7V6.9H79.3006V7H79.4006ZM79.4006 11.7L79.3155 11.7525L79.5006 12.0525V11.7H79.4006ZM76.5006 7L76.5857 6.94749L76.5564 6.9H76.5006V7ZM47.3004 10.1999C47.3004 10.9845 47.1043 11.6546 46.6297 12.1292L46.7711 12.2706C47.2965 11.7452 47.5004 11.0153 47.5004 10.1999H47.3004ZM47.3004 9.7999V10.1999H47.5004V9.7999H47.3004ZM44.5004 9.8999H47.4004V9.6999H44.5004V9.8999ZM44.6004 10.5999V9.7999H44.4004V10.5999H44.6004ZM46.7004 10.4999H44.5004V10.6999H46.7004V10.4999ZM46.2711 11.8706C46.5878 11.5539 46.8004 11.1292 46.8004 10.5999H46.6004C46.6004 11.0706 46.413 11.4459 46.1297 11.7292L46.2711 11.8706ZM44.5004 12.5999C44.8602 12.5999 45.1736 12.5485 45.4633 12.43C45.753 12.3114 46.0138 12.1279 46.2711 11.8706L46.1297 11.7292C45.887 11.9719 45.6478 12.1384 45.3875 12.2448C45.1272 12.3513 44.8406 12.3999 44.5004 12.3999V12.5999ZM42.8379 11.878C43.3421 12.2813 43.8649 12.5999 44.5004 12.5999V12.3999C43.9359 12.3999 43.4587 12.1185 42.9629 11.7218L42.8379 11.878ZM42.1004 10.0999C42.1004 10.8183 42.3062 11.4526 42.8379 11.878L42.9629 11.7218C42.4946 11.3472 42.3004 10.7815 42.3004 10.0999H42.1004ZM42.8379 8.32182C42.3062 8.74718 42.1004 9.38148 42.1004 10.0999H42.3004C42.3004 9.41832 42.4946 8.85262 42.9629 8.47799L42.8379 8.32182ZM44.5004 7.5999C43.8794 7.5999 43.2465 7.80725 42.8223 8.33743L42.9785 8.46237C43.3543 7.99256 43.9214 7.7999 44.5004 7.7999V7.5999ZM46.1785 8.33743C45.7557 7.80895 45.2241 7.5999 44.5004 7.5999V7.7999C45.1767 7.7999 45.6451 7.99085 46.0223 8.46237L46.1785 8.33743ZM46.5297 7.82919L46.0297 8.32919L46.1711 8.47061L46.6711 7.97061L46.5297 7.82919ZM45.6557 7.28935C46.0514 7.48721 46.332 7.67762 46.5172 7.95537L46.6836 7.84443C46.4688 7.52218 46.1494 7.31259 45.7451 7.11046L45.6557 7.28935ZM44.5004 6.9999C44.8831 6.9999 45.2679 7.09546 45.6557 7.28935L45.7451 7.11046C45.3329 6.90435 44.9177 6.7999 44.5004 6.7999V6.9999ZM42.3711 7.87061C42.9523 7.2894 43.6269 6.9999 44.5004 6.9999V6.7999C43.5739 6.7999 42.8485 7.1104 42.2297 7.72919L42.3711 7.87061ZM41.5004 9.9999C41.5004 9.12637 41.7899 8.45182 42.3711 7.87061L42.2297 7.72919C41.6109 8.34798 41.3004 9.07343 41.3004 9.9999H41.5004ZM42.3711 12.1292C41.7899 11.548 41.5004 10.8734 41.5004 9.9999H41.3004C41.3004 10.9264 41.6109 11.6518 42.2297 12.2706L42.3711 12.1292ZM44.5004 12.9999C43.6269 12.9999 42.9523 12.7104 42.3711 12.1292L42.2297 12.2706C42.8485 12.8894 43.5739 13.1999 44.5004 13.1999V12.9999ZM46.6297 12.1292C46.0485 12.7104 45.3739 12.9999 44.5004 12.9999V13.1999C45.4269 13.1999 46.1523 12.8894 46.7711 12.2706L46.6297 12.1292ZM52 7.6H49.3V7.8H52V7.6ZM51.9 7V7.7H52.1V7H51.9ZM48.5 7.1H52V6.9H48.5V7.1ZM48.6 13V7H48.4V13H48.6ZM52 12.9H48.5V13.1H52V12.9ZM51.9 12.2V13H52.1V12.2H51.9ZM49.3 12.3H52V12.1H49.3V12.3ZM49.2 10.3V12.2H49.4V10.3H49.2ZM51.8 10.2H49.3V10.4H51.8V10.2ZM51.7 9.6V10.3H51.9V9.6H51.7ZM49.3 9.7H51.8V9.5H49.3V9.7ZM49.2 7.7V9.6H49.4V7.7H49.2ZM54.5008 13.1H55.3008V12.9H54.5008V13.1ZM54.4008 7.7V13H54.6008V7.7H54.4008ZM52.8008 7.8H54.5008V7.6H52.8008V7.8ZM52.7008 7V7.7H52.9008V7H52.7008ZM57.0008 6.9H52.8008V7.1H57.0008V6.9ZM57.1008 7.7V7H56.9008V7.7H57.1008ZM55.3008 7.8H57.0008V7.6H55.3008V7.8ZM55.4008 13V7.7H55.2008V13H55.4008ZM59.9004 7.0999H60.7004V6.8999H59.9004V7.0999ZM60.0004 12.9999V6.9999H59.8004V12.9999H60.0004ZM60.7004 12.8999H59.9004V13.0999H60.7004V12.8999ZM60.6004 6.9999V12.9999H60.8004V6.9999H60.6004ZM63.3006 13.1H64.0006V12.9H63.3006V13.1ZM63.2006 7.7V13H63.4006V7.7H63.2006ZM61.6006 7.8H63.3006V7.6H61.6006V7.8ZM61.5006 7V7.7H61.7006V7H61.5006ZM65.7006 6.9H61.6006V7.1H65.7006V6.9ZM65.8006 7.7V7H65.6006V7.7H65.8006ZM64.0006 7.8H65.7006V7.6H64.0006V7.8ZM64.1006 13V7.7H63.9006V13H64.1006ZM73.5301 12.1292C72.9489 12.7104 72.2743 12.9999 71.4008 12.9999V13.1999C72.3273 13.1999 73.0527 12.8894 73.6715 12.2706L73.5301 12.1292ZM74.4008 9.9999C74.4008 10.8734 74.1113 11.548 73.5301 12.1292L73.6715 12.2706C74.2903 11.6518 74.6008 10.9264 74.6008 9.9999H74.4008ZM73.5301 7.87061C74.1113 8.45182 74.4008 9.12637 74.4008 9.9999H74.6008C74.6008 9.07343 74.2903 8.34798 73.6715 7.72919L73.5301 7.87061ZM71.4008 6.9999C72.2743 6.9999 72.9489 7.2894 73.5301 7.87061L73.6715 7.72919C73.0527 7.1104 72.3273 6.7999 71.4008 6.7999V6.9999ZM69.2715 7.87061C69.8527 7.2894 70.5273 6.9999 71.4008 6.9999V6.7999C70.4743 6.7999 69.7489 7.1104 69.1301 7.72919L69.2715 7.87061ZM68.4008 9.9999C68.4008 9.12637 68.6903 8.45182 69.2715 7.87061L69.1301 7.72919C68.5113 8.34798 68.2008 9.07343 68.2008 9.9999H68.4008ZM69.2715 12.1292C68.6903 11.548 68.4008 10.8734 68.4008 9.9999H68.2008C68.2008 10.9264 68.5113 11.6518 69.1301 12.2706L69.2715 12.1292ZM71.4008 12.9999C70.5273 12.9999 69.8527 12.7104 69.2715 12.1292L69.1301 12.2706C69.7489 12.8894 70.4743 13.1999 71.4008 13.1999V12.9999ZM71.4006 12.2999C70.8318 12.2999 70.2561 12.014 69.8713 11.6291L69.7299 11.7706C70.145 12.1857 70.7694 12.4999 71.4006 12.4999V12.2999ZM72.9225 11.6374C72.5466 12.1072 71.9796 12.2999 71.4006 12.2999V12.4999C72.0216 12.4999 72.6545 12.2925 73.0787 11.7623L72.9225 11.6374ZM73.6006 9.99985C73.6006 10.6709 73.3129 11.2461 72.9299 11.6291L73.0713 11.7706C73.4882 11.3536 73.8006 10.7288 73.8006 9.99985H73.6006ZM72.9381 8.37794C73.4064 8.75258 73.6006 9.31827 73.6006 9.99985H73.8006C73.8006 9.28143 73.5948 8.64713 73.0631 8.22177L72.9381 8.37794ZM71.4006 7.69985C71.9694 7.69985 72.545 7.98571 72.9299 8.37056L73.0713 8.22914C72.6561 7.81399 72.0318 7.49985 71.4006 7.49985V7.69985ZM69.8787 8.36232C70.2545 7.89251 70.8216 7.69985 71.4006 7.69985V7.49985C70.7796 7.49985 70.1466 7.7072 69.7225 8.23738L69.8787 8.36232ZM69.2006 9.99985C69.2006 9.32884 69.4882 8.75363 69.8713 8.37056L69.7299 8.22914C69.3129 8.64608 69.0006 9.27087 69.0006 9.99985H69.2006ZM69.8631 11.6218C69.3948 11.2471 69.2006 10.6814 69.2006 9.99985H69.0006C69.0006 10.7183 69.2064 11.3526 69.7381 11.7779L69.8631 11.6218ZM75.7006 13V7H75.5006V13H75.7006ZM76.3006 12.9H75.6006V13.1H76.3006V12.9ZM76.2006 8.1V13H76.4006V8.1H76.2006ZM79.4851 12.9465L76.3851 8.04654L76.2161 8.15346L79.3161 13.0535L79.4851 12.9465ZM80.2006 12.9H79.4006V13.1H80.2006V12.9ZM80.1006 7V13H80.3006V7H80.1006ZM79.4006 7.1H80.2006V6.9H79.4006V7.1ZM79.5006 11.7V7H79.3006V11.7H79.5006ZM76.4155 7.05251L79.3155 11.7525L79.4857 11.6475L76.5857 6.94749L76.4155 7.05251ZM75.6006 7.1H76.5006V6.9H75.6006V7.1Z" fill="white"/>
  <path fill-rule="evenodd" clip-rule="evenodd" d="M47.6996 23.1001V24.9001H51.9996C51.8996 25.9001 51.4996 26.7001 50.9996 27.2001C50.3996 27.8001 49.3996 28.5001 47.6996 28.5001C44.9996 28.5001 42.9996 26.4001 42.9996 23.7001C42.9996 21.0001 45.0996 18.9001 47.6996 18.9001C49.0996 18.9001 50.1996 19.5001 50.9996 20.2001L52.2996 18.9001C51.1996 17.9001 49.7996 17.1001 47.7996 17.1001C44.1996 17.1001 41.0996 20.1001 41.0996 23.7001C41.0996 27.3001 44.1996 30.3001 47.7996 30.3001C49.7996 30.3001 51.1996 29.7001 52.3996 28.4001C53.5996 27.2001 53.9996 25.5001 53.9996 24.2001V24.2001C53.9996 23.8001 53.9996 23.4001 53.8996 23.1001H47.6996ZM58.8 21.8C56.4 21.8 54.5 23.6 54.5 26.1C54.5 28.5 56.4 30.4 58.8 30.4C61.2 30.4 63.1 28.6 63.1 26.1C63.1 23.5 61.2 21.8 58.8 21.8ZM63.7998 26.1C63.7998 23.6 65.6998 21.8 68.0998 21.8C70.4998 21.8 72.3998 23.5 72.3998 26.1C72.3998 28.6 70.4998 30.4 68.0998 30.4C65.6998 30.4 63.7998 28.5 63.7998 26.1ZM65.6992 26.0001C65.6992 27.5001 66.7992 28.6001 68.0992 28.6001C69.3992 28.6001 70.4992 27.5001 70.4992 26.0001C70.4992 24.4001 69.3992 23.4001 68.0992 23.4001C66.7992 23.4001 65.6992 24.5001 65.6992 26.0001ZM56.3994 26.0001C56.3994 27.5001 57.4994 28.6001 58.7994 28.6001C60.0994 28.6001 61.1994 27.5001 61.1994 26.0001C61.1994 24.4001 60.0994 23.4001 58.7994 23.4001C57.4994 23.4001 56.3994 24.5001 56.3994 26.0001ZM89.5 21.8C91.7 21.8 92.7 23.5 93.1 24.5L93.3 25L87.6 27.4C88.1 28.3 88.7 28.7 89.7 28.7C90.7 28.7 91.3 28.2 91.8 27.5L93.2 28.5C92.8 29.2 91.6 30.4 89.7 30.4C87.3 30.4 85.5 28.5 85.5 26.1C85.5 23.5 87.3 21.8 89.5 21.8ZM87.2998 25.9001C87.2998 24.3001 88.5998 23.4001 89.4998 23.4001C90.1998 23.4001 90.8998 23.8001 91.0998 24.3001L87.2998 25.9001ZM84.4996 30.0001H82.5996V17.5001H84.4996V30.0001ZM79.5992 22.7002C79.0992 22.2002 78.2992 21.7002 77.2992 21.7002C75.1992 21.7002 73.1992 23.6002 73.1992 26.0002C73.1992 28.4002 75.0992 30.2002 77.2992 30.2002C78.2992 30.2002 79.0992 29.7002 79.4992 29.2002H79.5992V29.8002C79.5992 31.4002 78.6992 32.3002 77.2992 32.3002C76.1992 32.3002 75.3992 31.5002 75.1992 30.8002L73.5992 31.5002C74.0992 32.6002 75.2992 34.0002 77.3992 34.0002C79.5992 34.0002 81.3992 32.7002 81.3992 29.6002V22.0002H79.5992V22.7002ZM75 26.0001C75 27.5001 76.1 28.6001 77.4 28.6001C78.7 28.6001 79.7 27.5001 79.7 26.0001C79.7 24.5001 78.7 23.4001 77.4 23.4001C76.1 23.4001 75 24.5001 75 26.0001ZM101.8 17.5H97.2998V30H99.1998V25.3H101.8C103.9 25.3 105.9 23.8 105.9 21.4C105.9 19 103.9 17.5 101.8 17.5ZM99.1992 23.5002H101.899C103.199 23.5002 103.999 22.4002 104.099 21.3002C104.099 20.4002 103.299 19.2002 101.899 19.2002H99.1992V23.5002ZM113.4 21.7002C112 21.7002 110.6 22.3002 110.1 23.6002L111.8 24.3002C112.2 23.6002 112.8 23.4002 113.5 23.4002C114.5 23.4002 115.4 24.0002 115.5 25.0002V25.1002C115.2 24.9002 114.4 24.6002 113.6 24.6002C111.8 24.6002 110 25.6002 110 27.4002C110 29.1002 111.5 30.2002 113.1 30.2002C114.4 30.2002 115 29.6002 115.5 29.0002H115.6V30.0002H117.4V25.2002C117.2 23.0002 115.5 21.7002 113.4 21.7002ZM111.699 27.5002C111.699 28.3002 112.599 28.6002 113.199 28.6002C114.199 28.6002 115.199 27.8002 115.399 26.6002C115.349 26.58 115.299 26.5598 115.25 26.5398C114.814 26.3618 114.418 26.2002 113.699 26.2002C112.799 26.2002 111.699 26.5002 111.699 27.5002ZM123.7 22L121.6 27.4H121.5L119.3 22H117.3L120.6 29.6L118.7 33.8H120.6L125.7 22H123.7ZM108.799 30H106.899V17.5H108.799V30Z" fill="white"/>
  <path d="M10.4 7.5C10.1 7.8 10 8.3 10 8.9V31C10 31.6 10.2 32.1 10.5 32.4L10.6 32.5L23 20.1V19.9L10.4 7.5Z" fill="url(#paint0_linear_666_4849)"/>
  <path d="M27.0004 24.3L22.9004 20.2V19.9L27.0004 15.8L27.1004 15.9L32.0004 18.7C33.4004 19.5 33.4004 20.8 32.0004 21.6L27.0004 24.3Z" fill="url(#paint1_linear_666_4849)"/>
  <path d="M27.1004 24.2L22.9004 20L10.4004 32.5C10.9004 33 11.6004 33 12.5004 32.6L27.1004 24.2Z" fill="url(#paint2_linear_666_4849)"/>
  <path d="M27.1004 15.8001L12.5004 7.50011C11.6004 7.00011 10.9004 7.10011 10.4004 7.60011L22.9004 20.0001L27.1004 15.8001Z" fill="url(#paint3_linear_666_4849)"/>
  <path opacity="0.2" d="M27.0004 24.1001L12.5004 32.3001C11.7004 32.8001 11.0004 32.7001 10.5004 32.3001L10.4004 32.4001L10.5004 32.5001C11.0004 32.9001 11.7004 33.0001 12.5004 32.5001L27.0004 24.1001Z" fill="black"/>
  <path opacity="0.12" fill-rule="evenodd" clip-rule="evenodd" d="M27 24.1L32 21.3C32.6 20.9 33 20.5 33 20C33 20.5 32.7 21 32 21.4L27.1 24.2L27 24.1ZM10.018 31.307C10.0584 31.725 10.1708 32.0708 10.4 32.3H10.4097C10.4387 32.3354 10.4688 32.3688 10.5 32.4V32.3H10.4097C10.2095 32.0548 10.0665 31.7114 10.018 31.307ZM10.018 31.307C10.0056 31.1778 10 31.0417 10 30.9V31C10 31.1056 10.0062 31.2081 10.018 31.307Z" fill="black"/>
  <path opacity="0.25" d="M12.5 7.60003L32 18.7C32.6 19.1 33 19.5 33 20C33 19.5 32.7 19 32 18.6L12.5 7.50003C11.1 6.70003 10 7.30003 10 8.90003V9.00003C10 7.50003 11.1 6.80003 12.5 7.60003Z" fill="white"/>
  <defs>
    <linearGradient id="paint0_linear_666_4849" x1="17.4367" y1="-7.4275" x2="-2.4314" y2="-2.05549" gradientUnits="userSpaceOnUse">
      <stop stop-color="#00A0FF"/>
      <stop offset="0.007" stop-color="#00A1FF"/>
      <stop offset="0.26" stop-color="#00BEFF"/>
      <stop offset="0.512" stop-color="#00D2FF"/>
      <stop offset="0.76" stop-color="#00DFFF"/>
      <stop offset="1" stop-color="#00E3FF"/>
    </linearGradient>
    <linearGradient id="paint1_linear_666_4849" x1="33.8344" y1="9.8693" x2="9.63739" y2="9.8693" gradientUnits="userSpaceOnUse">
      <stop stop-color="#FFE000"/>
      <stop offset="0.409" stop-color="#FFBD00"/>
      <stop offset="0.775" stop-color="#FFA500"/>
      <stop offset="1" stop-color="#FF9C00"/>
    </linearGradient>
    <linearGradient id="paint2_linear_666_4849" x1="10.0833" y1="13.514" x2="-5.88185" y2="40.318" gradientUnits="userSpaceOnUse">
      <stop stop-color="#FF3A44"/>
      <stop offset="1" stop-color="#C31162"/>
    </linearGradient>
    <linearGradient id="paint3_linear_666_4849" x1="0.682466" y1="4.07966" x2="7.75572" y2="16.066" gradientUnits="userSpaceOnUse">
      <stop stop-color="#32A071"/>
      <stop offset="0.069" stop-color="#2DA771"/>
      <stop offset="0.476" stop-color="#15CF74"/>
      <stop offset="0.801" stop-color="#06E775"/>
      <stop offset="1" stop-color="#00F076"/>
    </linearGradient>
  </defs>
</svg>