<svg xmlns="http://www.w3.org/2000/svg" width="68" height="56" viewBox="0 0 68 56" fill="none">
  <path fill-rule="evenodd" clip-rule="evenodd" d="M33.0179 14.8969L33.1653 17.319L30.7086 17.0224C21.7663 15.8855 13.954 12.0298 7.32093 5.55427L4.0781 2.3412L3.24283 4.71393C1.47401 10.0031 2.60409 15.5889 6.28912 19.3457C8.25447 21.4219 7.81227 21.7185 4.42204 20.4827C3.24283 20.0872 2.21102 19.7906 2.11275 19.9389C1.76882 20.2849 2.94802 24.7832 3.88157 26.5628C5.15904 29.0344 7.76313 31.4565 10.6129 32.89L13.0204 34.027L10.1707 34.0764C7.4192 34.0764 7.32093 34.1258 7.61573 35.1639C8.59841 38.377 12.48 41.7878 16.8037 43.2707L19.85 44.3088L17.1968 45.8906C13.2661 48.1645 8.64754 49.4497 4.02897 49.5486C1.81795 49.598 0 49.7957 0 49.944C0 50.4383 5.99432 53.2065 9.48281 54.294C19.9483 57.5071 32.3791 56.123 41.7146 50.6361C48.3476 46.7309 54.9807 38.9702 58.0761 31.4565C59.7466 27.4526 61.4172 20.1366 61.4172 16.627C61.4172 14.3531 61.5646 14.0565 64.3161 11.3378C65.9375 9.75597 67.4606 8.02586 67.7554 7.53154C68.2468 6.59233 68.1976 6.59233 65.6918 7.43268C61.5155 8.91563 60.9259 8.7179 62.9895 6.49347C64.5126 4.91165 66.3306 2.04461 66.3306 1.20427C66.3306 1.05597 65.5936 1.30313 64.7583 1.74802C63.8739 2.24234 61.9085 2.98381 60.4345 3.4287L57.7813 4.26904L55.3737 2.63779C54.0471 1.74802 52.18 0.759384 51.1974 0.462793C48.6915 -0.229252 44.8591 -0.130389 42.599 0.66052C36.4572 2.88495 32.5757 8.61904 33.0179 14.8969Z" fill="white"/>
</svg>