<svg xmlns="http://www.w3.org/2000/svg" width="24" height="24" viewBox="0 0 24 24" fill="none">
  <path d="M12 24C18.6274 24 24 18.6274 24 12C24 5.37258 18.6274 0 12 0C5.37258 0 0 5.37258 0 12C0 18.6274 5.37258 24 12 24Z" fill="#00A478"/>
  <path d="M24 11.9999C24 18.6 18.6 23.9999 12 23.9999C8.17502 23.9999 4.80002 22.275 2.625 19.5C4.65 21.15 7.275 22.125 10.125 22.125C16.725 22.125 22.125 16.725 22.125 10.125C22.125 7.275 21.15 4.65 19.5 2.625C22.275 4.79992 24 8.17491 24 11.9999Z" fill="#017D5C"/>
  <path d="M18.5251 8.54985L10.7252 17.0999C10.2001 17.6999 9.30017 17.6999 8.77514 17.0999L5.47514 13.4249C5.02516 12.8999 5.02516 12.0749 5.55013 11.5499C6.07515 11.0999 6.90012 11.0999 7.42515 11.6248L9.75015 14.2498L16.5751 6.82486C17.1001 6.29984 17.9251 6.22485 18.4501 6.74988C18.9751 7.19986 18.9751 8.09987 18.5251 8.54985Z" fill="white"/>
</svg>