<svg xmlns="http://www.w3.org/2000/svg" width="24" height="24" viewBox="0 0 24 24" fill="none">
  <g clip-path="url(#clip0_666_5173)">
    <path d="M12 24C18.6274 24 24 18.6274 24 12C24 5.37259 18.6274 0 12 0C5.37259 0 0 5.37259 0 12C0 18.6274 5.37259 24 12 24Z" fill="#E24C4B"/>
    <path d="M24 11.9999C24 18.6 18.6 24 12 24C8.17503 24 4.80003 22.275 2.625 19.5C4.65 21.15 7.27501 22.125 10.125 22.125C16.725 22.125 22.125 16.725 22.125 10.125C22.125 7.27501 21.15 4.65 19.5 2.625C22.275 4.79992 24 8.17492 24 11.9999Z" fill="#D1403F"/>
    <path d="M17.475 17.475C17.025 17.925 16.275 17.925 15.825 17.475L12 13.65L8.175 17.475C7.72501 17.925 6.97497 17.925 6.52499 17.475C6.075 17.025 6.075 16.275 6.52499 15.825L10.35 12L6.52499 8.175C6.075 7.72501 6.075 6.97497 6.52499 6.52499C6.97497 6.075 7.72501 6.075 8.175 6.52499L12 10.35L15.825 6.52499C16.275 6.075 17.025 6.075 17.475 6.52499C17.925 6.97497 17.925 7.72501 17.475 8.175L13.65 12L17.475 15.825C17.925 16.275 17.925 17.0249 17.475 17.475Z" fill="white"/>
  </g>
  <defs>
    <clipPath id="clip0_666_5173">
      <rect width="24" height="24" fill="white"/>
    </clipPath>
  </defs>
</svg>