<svg xmlns="http://www.w3.org/2000/svg" width="21" height="13" viewBox="0 0 21 13" fill="none">
  <rect width="20.884" height="12.8571" rx="3.03797" fill="white"/>
  <mask id="mask0_666_5310" style="mask-type:luminance" maskUnits="userSpaceOnUse" x="0" y="0" width="21" height="13">
    <rect width="20.884" height="12.8571" rx="3.03797" fill="white"/>
  </mask>
  <g mask="url(#mask0_666_5310)">
    <path fill-rule="evenodd" clip-rule="evenodd" d="M20.884 0H0V0.857143H20.884V0ZM20.884 1.71435H0V2.57149H20.884V1.71435ZM0 3.42871H20.884V4.28585H0V3.42871ZM20.884 5.14307H0V6.00021H20.884V5.14307ZM0 6.85742H20.884V7.71456H0V6.85742ZM20.884 8.57133H0V9.42847H20.884V8.57133ZM0 10.2857H20.884V11.1428H0V10.2857ZM20.884 12H0V12.8572H20.884V12Z" fill="#D02F44"/>
    <rect width="8.95028" height="6" fill="#46467F"/>
    <g filter="url(#filter0_d_666_5310)">
      <path fill-rule="evenodd" clip-rule="evenodd" d="M1.49141 1.71456C1.76602 1.71456 1.98865 1.52269 1.98865 1.28599C1.98865 1.0493 1.76602 0.857422 1.49141 0.857422C1.21679 0.857422 0.99417 1.0493 0.99417 1.28599C0.99417 1.52269 1.21679 1.71456 1.49141 1.71456ZM3.48067 1.71456C3.75528 1.71456 3.9779 1.52269 3.9779 1.28599C3.9779 1.0493 3.75528 0.857422 3.48067 0.857422C3.20605 0.857422 2.98343 1.0493 2.98343 1.28599C2.98343 1.52269 3.20605 1.71456 3.48067 1.71456ZM5.96618 1.28599C5.96618 1.52269 5.74356 1.71456 5.46895 1.71456C5.19433 1.71456 4.97171 1.52269 4.97171 1.28599C4.97171 1.0493 5.19433 0.857422 5.46895 0.857422C5.74356 0.857422 5.96618 1.0493 5.96618 1.28599ZM7.4582 1.71456C7.73282 1.71456 7.95544 1.52269 7.95544 1.28599C7.95544 1.0493 7.73282 0.857422 7.4582 0.857422C7.18359 0.857422 6.96097 1.0493 6.96097 1.28599C6.96097 1.52269 7.18359 1.71456 7.4582 1.71456ZM2.98279 2.14342C2.98279 2.38011 2.76016 2.57199 2.48555 2.57199C2.21093 2.57199 1.98831 2.38011 1.98831 2.14342C1.98831 1.90672 2.21093 1.71484 2.48555 1.71484C2.76016 1.71484 2.98279 1.90672 2.98279 2.14342ZM4.47481 2.57199C4.74942 2.57199 4.97204 2.38011 4.97204 2.14342C4.97204 1.90672 4.74942 1.71484 4.47481 1.71484C4.20019 1.71484 3.97757 1.90672 3.97757 2.14342C3.97757 2.38011 4.20019 2.57199 4.47481 2.57199ZM6.9613 2.14342C6.9613 2.38011 6.73868 2.57199 6.46406 2.57199C6.18945 2.57199 5.96683 2.38011 5.96683 2.14342C5.96683 1.90672 6.18945 1.71484 6.46406 1.71484C6.73868 1.71484 6.9613 1.90672 6.9613 2.14342ZM7.4582 3.42941C7.73282 3.42941 7.95544 3.23753 7.95544 3.00084C7.95544 2.76414 7.73282 2.57227 7.4582 2.57227C7.18359 2.57227 6.96097 2.76414 6.96097 3.00084C6.96097 3.23753 7.18359 3.42941 7.4582 3.42941ZM5.96618 3.00084C5.96618 3.23753 5.74356 3.42941 5.46895 3.42941C5.19433 3.42941 4.97171 3.23753 4.97171 3.00084C4.97171 2.76414 5.19433 2.57227 5.46895 2.57227C5.74356 2.57227 5.96618 2.76414 5.96618 3.00084ZM3.48067 3.42941C3.75528 3.42941 3.9779 3.23753 3.9779 3.00084C3.9779 2.76414 3.75528 2.57227 3.48067 2.57227C3.20605 2.57227 2.98343 2.76414 2.98343 3.00084C2.98343 3.23753 3.20605 3.42941 3.48067 3.42941ZM1.98865 3.00035C1.98865 3.23704 1.76602 3.42892 1.49141 3.42892C1.21679 3.42892 0.99417 3.23704 0.99417 3.00035C0.99417 2.76366 1.21679 2.57178 1.49141 2.57178C1.76602 2.57178 1.98865 2.76366 1.98865 3.00035ZM2.48555 4.28634C2.76016 4.28634 2.98279 4.09446 2.98279 3.85777C2.98279 3.62108 2.76016 3.4292 2.48555 3.4292C2.21093 3.4292 1.98831 3.62108 1.98831 3.85777C1.98831 4.09446 2.21093 4.28634 2.48555 4.28634ZM4.97204 3.85777C4.97204 4.09446 4.74942 4.28634 4.47481 4.28634C4.20019 4.28634 3.97757 4.09446 3.97757 3.85777C3.97757 3.62108 4.20019 3.4292 4.47481 3.4292C4.74942 3.4292 4.97204 3.62108 4.97204 3.85777ZM6.46406 4.28634C6.73868 4.28634 6.9613 4.09446 6.9613 3.85777C6.9613 3.62108 6.73868 3.4292 6.46406 3.4292C6.18945 3.4292 5.96683 3.62108 5.96683 3.85777C5.96683 4.09446 6.18945 4.28634 6.46406 4.28634ZM7.95544 4.71473C7.95544 4.95143 7.73282 5.14331 7.4582 5.14331C7.18359 5.14331 6.96097 4.95143 6.96097 4.71473C6.96097 4.47804 7.18359 4.28616 7.4582 4.28616C7.73282 4.28616 7.95544 4.47804 7.95544 4.71473ZM5.46895 5.14328C5.74356 5.14328 5.96618 4.9514 5.96618 4.7147C5.96618 4.47801 5.74356 4.28613 5.46895 4.28613C5.19433 4.28613 4.97171 4.47801 4.97171 4.7147C4.97171 4.9514 5.19433 5.14328 5.46895 5.14328ZM3.9779 4.7147C3.9779 4.9514 3.75528 5.14328 3.48067 5.14328C3.20605 5.14328 2.98343 4.9514 2.98343 4.7147C2.98343 4.47801 3.20605 4.28613 3.48067 4.28613C3.75528 4.28613 3.9779 4.47801 3.9779 4.7147ZM1.49138 5.1433C1.76599 5.1433 1.98862 4.95142 1.98862 4.71472C1.98862 4.47803 1.76599 4.28615 1.49138 4.28615C1.21676 4.28615 0.994141 4.47803 0.994141 4.71472C0.994141 4.95142 1.21676 5.1433 1.49138 5.1433Z" fill="url(#paint0_linear_666_5310)"/>
    </g>
  </g>
  <defs>
    <filter id="filter0_d_666_5310" x="0.994141" y="0.857422" width="6.96143" height="6.28564" filterUnits="userSpaceOnUse" color-interpolation-filters="sRGB">
      <feFlood flood-opacity="0" result="BackgroundImageFix"/>
      <feColorMatrix in="SourceAlpha" type="matrix" values="0 0 0 0 0 0 0 0 0 0 0 0 0 0 0 0 0 0 127 0" result="hardAlpha"/>
      <feOffset dy="2"/>
      <feColorMatrix type="matrix" values="0 0 0 0 0 0 0 0 0 0 0 0 0 0 0 0 0 0 0.06 0"/>
      <feBlend mode="normal" in2="BackgroundImageFix" result="effect1_dropShadow_666_5310"/>
      <feBlend mode="normal" in="SourceGraphic" in2="effect1_dropShadow_666_5310" result="shape"/>
    </filter>
    <linearGradient id="paint0_linear_666_5310" x1="0.994141" y1="0.857422" x2="0.994141" y2="5.1433" gradientUnits="userSpaceOnUse">
      <stop stop-color="white"/>
      <stop offset="1" stop-color="#F0F0F0"/>
    </linearGradient>
  </defs>
</svg>