<svg xmlns="http://www.w3.org/2000/svg" width="52" height="52" viewBox="0 0 52 52" fill="none">
  <g clip-path="url(#clip0_666_5037)">
    <path d="M26 0C11.663 0 0 11.663 0 26C0 40.337 11.663 52 26 52C40.337 52 52 40.337 52 26C52 11.663 40.337 0 26 0Z" fill="#62F5D1"/>
    <path d="M39.1776 20.4901L25.0941 34.5732C24.6716 34.9957 24.117 35.2083 23.5624 35.2083C23.0078 35.2083 22.4531 34.9957 22.0306 34.5732L14.9891 27.5316C14.1417 26.6846 14.1417 25.3151 14.9891 24.4681C15.8361 23.6207 17.2052 23.6207 18.0526 24.4681L23.5624 29.9779L36.1141 17.4266C36.9611 16.5792 38.3302 16.5792 39.1776 17.4266C40.0246 18.2736 40.0246 19.6427 39.1776 20.4901Z" fill="#FAFAFA"/>
  </g>
  <defs>
    <clipPath id="clip0_666_5037">
      <rect width="52" height="52" fill="white"/>
    </clipPath>
  </defs>
</svg>