<svg xmlns="http://www.w3.org/2000/svg" width="14" height="14" viewBox="0 0 14 14" fill="none">
  <g clip-path="url(#clip0_666_5752)">
    <path d="M13.181 10.0186C13.0604 9.8701 12.8579 9.8152 12.6797 9.8791C12.1802 10.0582 11.6384 10.15 11.0678 10.15C8.33807 10.15 6.11777 7.9288 6.11777 5.2C6.11777 3.5575 6.92867 2.0284 8.28677 1.1086C8.44067 1.0042 8.51447 0.8161 8.47307 0.6352C8.43167 0.4543 8.28317 0.3175 8.09867 0.2905C7.88807 0.2599 7.67837 0.25 7.46777 0.25C3.74537 0.25 0.717773 3.2776 0.717773 7C0.717773 10.7224 3.74537 13.75 7.46777 13.75C9.83027 13.75 11.9795 12.5494 13.2152 10.5388C13.3151 10.3759 13.3007 10.168 13.181 10.0186Z" fill="black"/>
  </g>
  <defs>
    <clipPath id="clip0_666_5752">
      <rect width="13.5" height="13.5" fill="white" transform="translate(0.25 0.25)"/>
    </clipPath>
  </defs>
</svg>