<svg xmlns="http://www.w3.org/2000/svg" width="18" height="18" viewBox="0 0 18 18" fill="none">
  <g clip-path="url(#clip0_666_8198)">
    <path d="M8.99958 4.4917C6.51362 4.4917 4.49121 6.51451 4.49121 9.00047C4.49121 11.4864 6.51362 13.5092 8.99958 13.5092C11.4851 13.5092 13.508 11.4868 13.508 9.00047C13.508 6.51411 11.4851 4.4917 8.99958 4.4917Z" fill="white"/>
    <path d="M8.99979 3.16634C8.51392 3.16634 8.12012 2.77254 8.12012 2.28707V0.879672C8.12012 0.3938 8.51392 0 8.99979 0C9.48566 0 9.87946 0.3938 9.87946 0.879672V2.28707C9.87946 2.77254 9.48526 3.16634 8.99979 3.16634Z" fill="white"/>
    <path d="M8.99979 14.8335C8.51392 14.8335 8.12012 15.2273 8.12012 15.7132V17.1202C8.12012 17.6064 8.51392 18.0002 8.99979 18.0002C9.48566 18.0002 9.87946 17.6064 9.87946 17.1202V15.7132C9.87946 15.2273 9.48526 14.8335 8.99979 14.8335Z" fill="white"/>
    <path d="M13.1241 4.87553C12.7809 4.53195 12.7809 3.97513 13.1241 3.63155L14.1193 2.63629C14.4625 2.29311 15.0197 2.29311 15.3633 2.63629C15.7069 2.97987 15.7069 3.53709 15.3633 3.88027L14.3681 4.87553C14.0249 5.21911 13.4681 5.21911 13.1241 4.87553Z" fill="white"/>
    <path d="M4.87519 13.1252C4.53161 12.7812 3.97479 12.7812 3.63121 13.1252L2.63595 14.12C2.29277 14.4632 2.29237 15.0208 2.63595 15.364C2.97953 15.7072 3.53675 15.7072 3.87993 15.364L4.87519 14.3684C5.21877 14.0252 5.21877 13.468 4.87519 13.1252Z" fill="white"/>
    <path d="M15 8.87967C15 8.3938 15.3938 8 15.8797 8H17.2871C17.7729 8 18.1667 8.3938 18.1667 8.87967C18.1667 9.36555 17.7729 9.75895 17.2871 9.75895H15.8797C15.3938 9.75895 15 9.36555 15 8.87967Z" fill="white"/>
    <path d="M3.16634 8.99979C3.16634 8.51392 2.77254 8.12012 2.28667 8.12012H0.879672C0.3938 8.12012 0 8.51392 0 8.99979C0 9.48566 0.3938 9.87906 0.879672 9.87906H2.28707C2.77254 9.87906 3.16634 9.48566 3.16634 8.99979Z" fill="white"/>
    <path d="M13.1249 13.1255C13.4684 12.7824 14.0257 12.7824 14.3688 13.1255L15.3641 14.1208C15.7077 14.4636 15.7077 15.0212 15.3641 15.3644C15.0205 15.7076 14.4637 15.7076 14.1201 15.3644L13.1249 14.3691C12.7813 14.0255 12.7813 13.4687 13.1249 13.1255Z" fill="white"/>
    <path d="M4.87485 4.87494C5.21843 4.53136 5.21843 3.97454 4.87485 3.63096L3.87959 2.6361C3.53601 2.29252 2.97919 2.29252 2.63561 2.6361C2.29204 2.97928 2.29204 3.5365 2.63561 3.87968L3.63087 4.87494C3.97445 5.21892 4.53127 5.21892 4.87485 4.87494Z" fill="white"/>
  </g>
  <defs>
    <clipPath id="clip0_666_8198">
      <rect width="18" height="18" fill="white"/>
    </clipPath>
  </defs>
</svg>